<svg xmlns="http://www.w3.org/2000/svg" xmlns:xlink="http://www.w3.org/1999/xlink" viewBox="0,0,256,256" width="104px" height="104px"><g fill="#ffffff" fill-rule="nonzero" stroke="none" stroke-width="1" stroke-linecap="butt" stroke-linejoin="miter" stroke-miterlimit="10" stroke-dasharray="" stroke-dashoffset="0" font-family="none" font-weight="none" font-size="none" text-anchor="none" style="mix-blend-mode: normal"><g transform="scale(9.84615,9.84615)"><path d="M21.73438,19.64063l-2.09766,2.09375c-0.38281,0.38672 -1.00781,0.38672 -1.39453,0l-5.24219,-5.23828l-5.23828,5.23828c-0.38672,0.38672 -1.01562,0.38672 -1.39844,0l-2.09766,-2.09375c-0.38672,-0.38672 -0.38672,-1.01172 0,-1.39844l5.23828,-5.24219l-5.23828,-5.23828c-0.38281,-0.39062 -0.38281,-1.01953 0,-1.39844l2.09766,-2.09766c0.38281,-0.38672 1.01172,-0.38672 1.39844,0l5.23828,5.24219l5.24219,-5.24219c0.38672,-0.38672 1.01563,-0.38672 1.39453,0l2.09766,2.09375c0.38672,0.38672 0.38672,1.01563 0.00391,1.40234l-5.24219,5.23828l5.23828,5.24219c0.38672,0.38672 0.38672,1.01172 0,1.39844z"></path></g></g></svg>